<svg width="222" height="26" viewBox="0 0 222 26" fill="none" xmlns="http://www.w3.org/2000/svg">
<path d="M21.089 0.799998H15.473L4.42098 13.148V0.799998H0.208984V26H4.42098V19.448L6.79698 16.784L14.573 26H20.081L9.60498 13.616L21.089 0.799998ZM43.7397 5.012V0.799998H26.9277V26H43.7397V21.788H31.1397V15.488H41.6157V11.312H31.1397V5.012H43.7397ZM66.9381 26L60.0981 15.056C62.5461 14.372 65.6421 12.608 65.6421 8.144C65.6421 0.799998 57.2181 0.799998 57.2181 0.799998H48.8301V5.012L52.8261 11.312H48.8301V26H53.0421V15.488H55.4541L62.0061 26H66.9381ZM53.8341 5.012H57.2181C57.2181 5.012 61.4301 5.012 61.4301 8.144C61.4301 10.628 58.8741 11.168 57.7581 11.276L53.8341 5.012ZM87.1225 5.012V0.799998H70.3105V26H87.1225V21.788H74.5225V15.488H84.9985V11.312H74.5225V5.012H87.1225ZM100.097 26C104.165 26 107.945 23.156 107.945 18.656C107.945 15.668 106.505 13.364 103.841 12.14C102.041 11.312 100.277 11.312 100.097 11.312C98.2249 11.312 96.4249 10.232 96.4249 8.144C96.4249 6.128 98.1169 5.012 100.097 5.012C102.005 5.012 103.697 6.056 103.769 8.144H107.945C107.873 3.86 104.453 0.799998 100.097 0.799998C96.0289 0.799998 92.2129 3.68 92.2129 8.144C92.2129 11.132 93.6889 13.436 96.3169 14.66C98.1529 15.488 99.8809 15.488 100.097 15.488C101.789 15.56 103.769 16.532 103.769 18.656C103.769 20.636 102.041 21.788 100.097 21.788C98.2249 21.788 96.4969 20.744 96.4249 18.656H92.2129C92.2849 23.048 95.7409 25.892 100.097 26ZM113.834 0.799998L123.914 26L133.958 0.799998H113.834ZM120.026 4.976H127.766L123.914 14.66L120.026 4.976ZM155.185 5.012V0.799998H138.373V26H155.185V21.788H142.585V15.488H153.061V11.312H142.585V5.012H155.185ZM178.383 26L171.543 15.056C173.991 14.372 177.087 12.608 177.087 8.144C177.087 0.799998 168.663 0.799998 168.663 0.799998H160.275V5.012L164.271 11.312H160.275V26H164.487V15.488H166.899L173.451 26H178.383ZM165.279 5.012H168.663C168.663 5.012 172.875 5.012 172.875 8.144C172.875 10.628 170.319 11.168 169.203 11.276L165.279 5.012ZM191.152 26C195.22 26 199 23.156 199 18.656C199 15.668 197.56 13.364 194.896 12.14C193.096 11.312 191.332 11.312 191.152 11.312C189.28 11.312 187.48 10.232 187.48 8.144C187.48 6.128 189.172 5.012 191.152 5.012C193.06 5.012 194.752 6.056 194.824 8.144H199C198.928 3.86 195.508 0.799998 191.152 0.799998C187.084 0.799998 183.268 3.68 183.268 8.144C183.268 11.132 184.744 13.436 187.372 14.66C189.208 15.488 190.936 15.488 191.152 15.488C192.844 15.56 194.824 16.532 194.824 18.656C194.824 20.636 193.096 21.788 191.152 21.788C189.28 21.788 187.552 20.744 187.48 18.656H183.268C183.34 23.048 186.796 25.892 191.152 26ZM221.701 5.012V0.799998H204.889V26H221.701V21.788H209.101V15.488H219.577V11.312H209.101V5.012H221.701Z" fill="#444444"/>
</svg>
