<svg width="480" height="120" viewBox="0 0 480 120" fill="none" xmlns="http://www.w3.org/2000/svg">
<path d="M49.0892 73.3136L57.4277 23.0688H68.0527L64.6152 43.8032H86.1777L89.6152 23.0688H100.214L91.8704 73.3136H81.2715L84.709 52.5584H63.1413L59.709 73.3136H49.0892Z" fill="#C5C5C5"/>
<path d="M101.116 87.9855C99.6745 87.9855 98.4388 87.8579 97.4076 87.6053C96.3802 87.3514 95.5951 87.0923 95.0534 86.8293L98.7357 78.7355C100.486 79.2902 102.001 79.4334 103.283 79.1626C104.566 78.8944 105.725 77.91 106.757 76.2095L107.814 74.3188L100.746 35.6313H111.663L114.876 63.3032H115.267L127.73 35.6313H138.871L117.184 77.6313C115.613 80.6418 113.499 83.1183 110.84 85.0636C108.184 87.0115 104.941 87.9855 101.116 87.9855Z" fill="#C5C5C5"/>
<path d="M148.824 73.9282C145.945 73.9282 143.471 73.1886 141.402 71.7095C139.332 70.2277 137.863 68.0428 136.996 65.1574C136.131 62.2694 136.043 58.7238 136.73 54.522C137.449 50.203 138.741 46.6092 140.605 43.7407C142.47 40.8696 144.678 38.7186 147.23 37.2876C149.782 35.8579 152.44 35.1418 155.204 35.1418C157.311 35.1418 159.014 35.4985 160.314 36.2095C161.616 36.9217 162.613 37.8019 163.308 38.8501C164.006 39.8957 164.493 40.9321 164.772 41.9595H165.09L168.23 23.0688H178.678L170.34 73.3136H160.038L161.043 67.2772H160.6C159.946 68.3267 159.084 69.3631 158.011 70.3866C156.941 71.4074 155.65 72.2537 154.136 72.923C152.622 73.5923 150.851 73.9282 148.824 73.9282ZM153.413 65.6105C155.929 65.6105 158.06 64.5936 159.803 62.5584C161.545 60.5207 162.695 57.8267 163.251 54.4751C163.806 51.104 163.548 48.4256 162.475 46.4386C161.405 44.453 159.603 43.4595 157.069 43.4595C154.485 43.4595 152.362 44.479 150.699 46.5168C149.039 48.5519 147.949 51.2043 147.428 54.4751C146.868 57.7603 147.084 60.4373 148.074 62.5063C149.064 64.5767 150.842 65.6105 153.413 65.6105Z" fill="#C5C5C5"/>
<path d="M175.904 73.3137L182.186 35.6314H192.316L191.212 42.2043H191.602C192.682 39.8684 194.124 38.0988 195.93 36.897C197.739 35.6926 199.714 35.0897 201.857 35.0897C203.854 35.0897 205.473 35.5481 206.717 36.4647L202.201 45.0533C201.743 44.8241 201.23 44.6288 200.665 44.4647C200.102 44.302 199.462 44.2199 198.743 44.2199C196.649 44.2199 194.751 44.9413 193.05 46.3814C191.348 47.8189 190.286 49.6913 189.863 51.996L186.352 73.3137H175.904Z" fill="#C5C5C5"/>
<path d="M219.615 74.048C215.771 74.048 212.594 73.2277 210.084 71.5844C207.574 69.9425 205.805 67.6495 204.782 64.7042C203.761 61.7602 203.57 58.3422 204.209 54.449C204.83 50.5883 206.122 47.212 208.084 44.3188C210.049 41.423 212.544 39.1704 215.568 37.5584C218.592 35.9477 222.002 35.1417 225.797 35.1417C229.623 35.1417 232.795 35.9646 235.313 37.6105C237.834 39.2537 239.605 41.5467 240.626 44.4907C241.649 47.4321 241.842 50.8579 241.204 54.7667C240.581 58.6105 239.284 61.9803 237.313 64.8761C235.344 67.7693 232.851 70.0206 229.834 71.6313C226.816 73.2433 223.409 74.048 219.615 74.048ZM220.672 65.9542C223.304 65.9542 225.49 64.8592 227.23 62.6678C228.972 60.4777 230.122 57.7198 230.678 54.3969C231.201 51.1443 230.99 48.4516 230.042 46.3188C229.094 44.1834 227.329 43.1157 224.745 43.1157C222.096 43.1157 219.899 44.2198 218.157 46.4282C216.413 48.6339 215.273 51.3969 214.735 54.7198C214.21 57.9568 214.425 60.6391 215.381 62.7667C216.339 64.8917 218.102 65.9542 220.672 65.9542Z" fill="#C5C5C5"/>
<path d="M275.299 37.6678C275.383 35.6236 274.785 34.0455 273.508 32.9335C272.233 31.8228 270.328 31.2668 267.794 31.2668C265.193 31.2668 263.115 31.7955 261.56 32.8501C260.008 33.9022 259.092 35.246 258.815 36.8814C258.453 38.6665 258.997 40.0298 260.445 40.9699C261.893 41.9074 263.655 42.6236 265.732 43.1158L270.049 44.1939C272.844 44.8475 275.271 45.7955 277.331 47.0376C279.393 48.2811 280.915 49.8801 281.898 51.8345C282.88 53.7902 283.134 56.1665 282.659 58.9647C281.891 63.5585 279.573 67.2186 275.706 69.9439C271.837 72.6665 266.828 74.0272 260.68 74.0272C254.609 74.0272 249.979 72.634 246.789 69.8449C243.602 67.0533 242.393 62.9517 243.164 57.5376H253.44C253.18 60.0585 253.854 61.953 255.466 63.2199C257.077 64.4882 259.264 65.121 262.029 65.121C264.758 65.121 267.018 64.5481 268.81 63.4022C270.602 62.2564 271.644 60.7694 271.94 58.9387C272.234 57.2551 271.716 55.9478 270.383 55.0168C269.049 54.0832 267.065 53.2968 264.43 52.6574L259.18 51.2824C255.141 50.2512 252.078 48.6366 249.992 46.4387C247.909 44.2382 247.16 41.2902 247.747 37.5949C248.271 34.5363 249.544 31.871 251.565 29.6001C253.586 27.3267 256.135 25.5559 259.216 24.2876C262.299 23.0207 265.672 22.3866 269.336 22.3866C273.065 22.3866 276.212 23.0298 278.779 24.3137C281.348 25.5949 283.221 27.3814 284.398 29.6731C285.578 31.9621 285.94 34.6262 285.482 37.6678H275.299Z" fill="#C5C5C5"/>
<path d="M291.657 73.3136L287.683 35.6313H298.256L299.876 60.9491H300.219L310.521 35.6313H320.902L322.86 60.8032H323.183L333.141 35.6313H343.688L327.178 73.3136H316.115L313.563 49.6157H313.1L302.698 73.3136H291.657Z" fill="#C5C5C5"/>
<path d="M350.626 74.0271C347.046 74.0271 344.225 73.0831 342.163 71.1938C340.103 69.3058 339.376 66.5037 339.98 62.7876C340.452 59.9933 341.482 57.7954 343.069 56.1938C344.655 54.5896 346.59 53.4113 348.871 52.6574C351.152 51.9047 353.553 51.4126 356.074 51.1834C359.376 50.8579 361.767 50.5102 363.246 50.1417C364.728 49.7745 365.576 48.9933 365.788 47.798V47.6521C366.034 46.1001 365.751 44.8995 364.939 44.048C364.129 43.1977 362.842 42.7719 361.079 42.7719C359.215 42.7719 357.634 43.1821 356.34 44.0011C355.048 44.8175 354.117 45.854 353.548 47.1105L344.027 46.3292C345.301 42.8956 347.538 40.173 350.736 38.1626C353.934 36.1495 357.798 35.1417 362.329 35.1417C365.111 35.1417 367.642 35.5844 369.923 36.4698C372.204 37.3527 373.94 38.729 375.132 40.6001C376.326 42.4725 376.678 44.9047 376.189 47.8969L371.944 73.3136H362.033L362.918 68.0896H362.621C361.43 69.8396 359.827 71.2667 357.814 72.3709C355.803 73.4751 353.408 74.0271 350.626 74.0271ZM354.824 66.8136C357.112 66.8136 359.098 66.1469 360.783 64.8136C362.466 63.4803 363.48 61.824 363.824 59.8449L364.465 55.8449C364.02 56.1235 363.348 56.3644 362.449 56.5688C361.549 56.7745 360.605 56.9542 359.616 57.1105C358.626 57.2667 357.747 57.41 356.98 57.5376C355.098 57.8019 353.523 58.3175 352.257 59.0844C350.988 59.8527 350.241 60.9725 350.012 62.4438C349.799 63.8683 350.138 64.9529 351.027 65.699C351.919 66.4425 353.185 66.8136 354.824 66.8136Z" fill="#C5C5C5"/>
<path d="M374.739 87.4438L383.374 35.6313H393.677L392.645 41.9594H393.088C393.709 40.9321 394.546 39.8956 395.598 38.8501C396.653 37.8019 397.954 36.9217 399.499 36.2094C401.048 35.4985 402.869 35.1417 404.963 35.1417C407.726 35.1417 410.141 35.8579 412.208 37.2876C414.277 38.7185 415.77 40.8696 416.687 43.7407C417.604 46.6092 417.703 50.2029 416.984 54.5219C416.296 58.7238 415.032 62.2693 413.192 65.1573C411.351 68.0428 409.152 70.2277 406.593 71.7094C404.033 73.1886 401.322 73.9282 398.458 73.9282C396.429 73.9282 394.77 73.5922 393.479 72.923C392.187 72.2537 391.177 71.4073 390.447 70.3865C389.721 69.3631 389.203 68.3266 388.89 67.2771H388.525L385.187 87.4438H374.739ZM390.463 54.4751C389.921 57.8266 390.169 60.5206 391.208 62.5584C392.249 64.5935 394.028 65.6105 396.546 65.6105C399.13 65.6105 401.26 64.5766 402.937 62.5063C404.614 60.4373 405.739 57.7602 406.312 54.4751C406.833 51.2042 406.589 48.5519 405.583 46.5167C404.579 44.479 402.786 43.4594 400.203 43.4594C397.682 43.4594 395.562 44.4529 393.843 46.4386C392.127 48.4256 391.001 51.104 390.463 54.4751Z" fill="#C5C5C5"/>
<path d="M192.825 89.4545H194.986C197.622 89.4545 200.467 88.8308 201.049 84.5743L201.112 84.0964C201.63 80.1094 199.159 79.0717 196.273 79.0717H190.811L188.694 95.2683H192.057L192.825 89.4545ZM193.178 86.5469L193.802 81.9779H195.879C196.792 81.9779 197.954 82.3516 197.706 84.1797L197.664 84.4909C197.436 86.2565 196.211 86.5469 195.297 86.5469H193.178Z" fill="#C5C5C5"/>
<path d="M206.884 92.7135C205.535 92.7135 205.078 91.8216 205.306 90.1602L205.41 89.3711C205.638 87.5846 206.364 86.8164 207.569 86.8164C208.919 86.8164 209.376 87.7096 209.147 89.3711L209.044 90.1602C208.815 91.9453 208.088 92.7135 206.884 92.7135ZM206.78 95.5378C210.269 95.5378 211.889 93.3997 212.325 90.1602L212.428 89.3711C212.843 86.2565 211.307 83.9922 207.673 83.9922C204.185 83.9922 202.544 86.1315 202.129 89.3711L202.024 90.1602C201.609 93.2747 203.147 95.5378 206.78 95.5378Z" fill="#C5C5C5"/>
<path d="M221.793 87.6888L222.354 95.2683H226.486L229.788 84.2631H226.611L224.805 91.7175L224.223 84.2631H220.236L217.743 91.7175L217.785 84.2631H214.671L215.065 95.2683H219.28L221.793 87.6888Z" fill="#C5C5C5"/>
<path d="M240.794 90.9492L240.917 89.9727C241.354 86.4844 240.128 83.9922 236.287 83.9922C232.799 83.9922 231.096 86.2969 230.701 89.3711L230.597 90.1602C230.182 93.2539 231.657 95.5378 235.561 95.5378C238.717 95.5378 240.378 94.0221 240.648 92.0495L240.689 91.7383H237.596C237.471 92.5482 236.89 93.0469 235.561 93.0469C234.314 93.0469 233.525 92.4648 233.713 90.9492H240.794ZM236.287 86.4844C237.45 86.4844 237.928 87.2109 237.824 88.582H234.024C234.273 87.1693 235.104 86.4844 236.287 86.4844Z" fill="#C5C5C5"/>
<path d="M249.91 83.9922C248.602 83.9922 247.48 84.5742 246.712 85.7161V84.263H243.785L243.576 87.3568L242.538 95.2682H245.82L246.732 88.3112C247.127 87.8346 247.999 87.3776 249.494 87.3776H249.765L250.201 84.013C250.221 84.013 250.076 83.9922 249.91 83.9922Z" fill="#C5C5C5"/>
<path d="M261.456 90.9492L261.579 89.9727C262.016 86.4844 260.79 83.9922 256.949 83.9922C253.461 83.9922 251.758 86.2969 251.363 89.3711L251.259 90.1602C250.844 93.2539 252.319 95.5378 256.223 95.5378C259.379 95.5378 261.04 94.0221 261.31 92.0495L261.352 91.7383H258.258C258.133 92.5482 257.552 93.0469 256.223 93.0469C254.977 93.0469 254.188 92.4648 254.375 90.9492H261.456ZM256.949 86.4844C258.112 86.4844 258.59 87.2109 258.486 88.582H254.686C254.935 87.1693 255.766 86.4844 256.949 86.4844Z" fill="#C5C5C5"/>
<path d="M267.041 95.5378C268.702 95.5378 269.699 94.832 270.322 93.8151V95.2682H273.251L273.458 92.1745L275.244 78.6562H271.963L271.09 85.2174C270.758 84.6979 269.844 83.9922 268.287 83.9922C265.442 83.9922 264.031 86.194 263.615 89.3711L263.511 90.1602C263.075 93.4414 264.238 95.5378 267.041 95.5378ZM269.055 86.8164C270.032 86.8164 270.529 87.4818 270.738 87.8958L270.239 91.6966C269.928 92.0911 269.387 92.7135 268.329 92.7135C267.103 92.7135 266.563 91.8424 266.792 90.1602L266.895 89.3711C267.103 87.7096 267.768 86.8164 269.055 86.8164Z" fill="#C5C5C5"/>
<path d="M285.978 78.6562H282.697L280.933 92.1536L280.351 95.2682H283.3L283.674 93.918C284.172 94.8737 285.169 95.5378 286.726 95.5378C289.571 95.5378 290.984 93.3372 291.399 90.1602L291.502 89.3711C291.938 86.0898 290.775 83.9922 287.972 83.9922C286.663 83.9922 285.751 84.4284 285.127 85.1341L285.978 78.6562ZM285.958 92.7135C284.982 92.7135 284.484 92.0495 284.275 91.6341L284.774 87.8346C285.085 87.4401 285.626 86.8164 286.684 86.8164C287.909 86.8164 288.45 87.6888 288.222 89.3711L288.118 90.1602C287.909 91.8216 287.245 92.7135 285.958 92.7135Z" fill="#C5C5C5"/>
<path d="M298.148 91.2813L296.964 84.2631H293.455L295.946 94.6862L293.558 99.4219H297.463L299.498 94.6862L304.751 84.2631H301.118L298.148 91.2813Z" fill="#C5C5C5"/>
<path d="M319.992 79.0717L319.141 85.5495H314.427L315.279 79.0717H311.914L309.797 95.2683H313.16L314.053 88.4571H318.767L317.874 95.2683H321.238L323.357 79.0717H319.992Z" fill="#C5C5C5"/>
<path d="M329.191 91.2813L328.008 84.2631H324.499L326.99 94.6862L324.602 99.4219H328.507L330.542 94.6862L335.794 84.2631H332.162L329.191 91.2813Z" fill="#C5C5C5"/>
<path d="M339.927 95.5378C341.589 95.5378 342.585 94.832 343.208 93.8151V95.2682H346.137L346.344 92.1745L348.13 78.6562H344.849L343.977 85.2174C343.645 84.6979 342.73 83.9922 341.173 83.9922C338.328 83.9922 336.917 86.194 336.501 89.3711L336.397 90.1602C335.961 93.4414 337.124 95.5378 339.927 95.5378ZM341.941 86.8164C342.918 86.8164 343.415 87.4818 343.624 87.8958L343.125 91.6966C342.814 92.0911 342.273 92.7135 341.215 92.7135C339.99 92.7135 339.449 91.8424 339.678 90.1602L339.781 89.3711C339.99 87.7096 340.654 86.8164 341.941 86.8164Z" fill="#C5C5C5"/>
<path d="M356.103 83.9922C354.796 83.9922 353.673 84.5742 352.905 85.7161V84.263H349.978L349.769 87.3568L348.732 95.2682H352.013L352.926 88.3112C353.32 87.8346 354.193 87.3776 355.687 87.3776H355.958L356.394 84.013C356.414 84.013 356.269 83.9922 356.103 83.9922Z" fill="#C5C5C5"/>
<path d="M362.312 92.7135C360.963 92.7135 360.506 91.8216 360.734 90.1602L360.838 89.3711C361.066 87.5846 361.793 86.8164 362.997 86.8164C364.347 86.8164 364.804 87.7096 364.575 89.3711L364.472 90.1602C364.243 91.9453 363.517 92.7135 362.312 92.7135ZM362.208 95.5378C365.698 95.5378 367.317 93.3997 367.754 90.1602L367.856 89.3711C368.272 86.2565 366.735 83.9922 363.101 83.9922C359.613 83.9922 357.972 86.1315 357.557 89.3711L357.453 90.1602C357.037 93.2747 358.575 95.5378 362.208 95.5378Z" fill="#C5C5C5"/>
</svg>
