<svg width="1024" height="256" viewBox="0 0 1024 256" fill="none" xmlns="http://www.w3.org/2000/svg">
<path d="M104.724 156.402L122.513 49.2135H145.179L137.846 93.4468H183.846L191.179 49.2135H213.79L195.99 156.402H173.379L180.713 112.125H134.701L127.379 156.402H104.724Z" fill="#212124"/>
<path d="M215.714 187.702C212.639 187.702 210.002 187.43 207.802 186.891C205.611 186.35 203.936 185.797 202.78 185.236L210.636 167.969C214.369 169.152 217.602 169.458 220.336 168.88C223.075 168.308 225.547 166.208 227.747 162.58L230.002 158.547L214.925 76.0135H238.214L245.069 135.047H245.902L272.491 76.0135H296.258L249.991 165.614C246.641 172.036 242.13 177.319 236.458 181.469C230.791 185.625 223.875 187.702 215.714 187.702Z" fill="#212124"/>
<path d="M317.491 157.714C311.35 157.714 306.072 156.136 301.658 152.98C297.241 149.819 294.108 145.158 292.258 139.002C290.414 132.841 290.225 125.277 291.691 116.313C293.225 107.1 295.98 99.4329 299.958 93.3135C303.936 87.1885 308.647 82.5996 314.091 79.5468C319.536 76.4968 325.205 74.9691 331.102 74.9691C335.597 74.9691 339.23 75.7302 342.002 77.2468C344.78 78.7663 346.908 80.6441 348.391 82.8802C349.88 85.1107 350.919 87.3218 351.514 89.5135H352.191L358.891 49.2135H381.18L363.391 156.402H341.414L343.558 143.525H342.614C341.219 145.764 339.38 147.975 337.091 150.158C334.808 152.336 332.052 154.141 328.825 155.569C325.594 156.997 321.816 157.714 317.491 157.714ZM327.28 139.969C332.65 139.969 337.194 137.8 340.914 133.458C344.63 129.111 347.083 123.364 348.269 116.214C349.452 109.022 348.902 103.308 346.614 99.0691C344.33 94.8329 340.486 92.7135 335.08 92.7135C329.569 92.7135 325.039 94.8885 321.491 99.2357C317.95 103.577 315.625 109.236 314.514 116.214C313.319 123.222 313.78 128.933 315.891 133.347C318.002 137.764 321.797 139.969 327.28 139.969Z" fill="#212124"/>
<path d="M375.263 156.402L388.663 76.0136H410.274L407.918 90.0358H408.752C411.054 85.0525 414.132 81.2775 417.985 78.7136C421.843 76.1441 426.057 74.858 430.629 74.858C434.888 74.858 438.343 75.8358 440.996 77.7914L431.363 96.1136C430.385 95.6247 429.29 95.208 428.085 94.858C426.885 94.5108 425.518 94.3358 423.985 94.3358C419.518 94.3358 415.468 95.8747 411.84 98.9469C408.21 102.014 405.943 106.008 405.04 110.925L397.552 156.402H375.263Z" fill="#212124"/>
<path d="M468.512 157.969C460.312 157.969 453.535 156.219 448.179 152.714C442.824 149.211 439.051 144.319 436.868 138.036C434.69 131.755 434.282 124.464 435.646 116.158C436.971 107.922 439.726 100.719 443.912 94.5469C448.104 88.3691 453.426 83.5636 459.879 80.1247C466.329 76.6886 473.604 74.9691 481.701 74.9691C489.862 74.9691 496.629 76.7247 502.001 80.2358C507.379 83.7413 511.157 88.633 513.335 94.9136C515.518 101.189 515.929 108.497 514.568 116.836C513.24 125.036 510.474 132.225 506.268 138.402C502.068 144.575 496.749 149.377 490.312 152.814C483.874 156.252 476.607 157.969 468.512 157.969ZM470.768 140.702C476.382 140.702 481.046 138.366 484.757 133.691C488.474 129.019 490.926 123.136 492.112 116.047C493.229 109.108 492.779 103.364 490.757 98.8136C488.735 94.258 484.968 91.9802 479.457 91.9802C473.804 91.9802 469.118 94.3358 465.401 99.0469C461.682 103.752 459.249 109.647 458.101 116.736C456.982 123.641 457.44 129.364 459.479 133.902C461.524 138.436 465.285 140.702 470.768 140.702Z" fill="#212124"/>
<path d="M587.305 80.3579C587.483 75.9968 586.208 72.6302 583.483 70.2579C580.764 67.8885 576.7 66.7024 571.294 66.7024C565.744 66.7024 561.311 67.8302 557.994 70.0802C554.683 72.3246 552.73 75.1913 552.139 78.6802C551.367 82.4885 552.528 85.3968 555.617 87.4024C558.705 89.4024 562.464 90.9302 566.894 91.9802L576.105 94.2802C582.067 95.6746 587.244 97.6968 591.639 100.347C596.039 103 599.286 106.411 601.383 110.58C603.478 114.752 604.019 119.822 603.005 125.791C601.367 135.591 596.422 143.4 588.172 149.213C579.919 155.022 569.233 157.925 556.117 157.925C543.167 157.925 533.289 154.952 526.483 149.002C519.683 143.047 517.105 134.297 518.75 122.747H540.672C540.117 128.125 541.555 132.166 544.994 134.869C548.43 137.575 553.097 138.925 558.994 138.925C564.817 138.925 569.639 137.702 573.461 135.258C577.283 132.813 579.508 129.641 580.139 125.736C580.767 122.144 579.661 119.355 576.817 117.369C573.972 115.377 569.739 113.7 564.117 112.336L552.917 109.402C544.3 107.202 537.767 103.758 533.317 99.069C528.872 94.3746 527.275 88.0857 528.528 80.2024C529.644 73.6774 532.361 67.9913 536.672 63.1468C540.983 58.2968 546.422 54.519 552.994 51.8135C559.572 49.1107 566.767 47.7579 574.583 47.7579C582.539 47.7579 589.253 49.1302 594.728 51.869C600.208 54.6024 604.205 58.4135 606.717 63.3024C609.233 68.1857 610.005 73.869 609.028 80.3579H587.305Z" fill="#212124"/>
<path d="M622.201 156.402L613.724 76.0135H636.279L639.735 130.025H640.468L662.446 76.0135H684.59L688.768 129.714H689.457L710.701 76.0135H733.201L697.979 156.402H674.379L668.935 105.847H667.946L645.757 156.402H622.201Z" fill="#212124"/>
<path d="M748.002 157.925C740.364 157.925 734.347 155.911 729.947 151.88C725.552 147.852 724.002 141.875 725.291 133.947C726.297 127.986 728.494 123.297 731.88 119.88C735.264 116.458 739.391 113.944 744.258 112.336C749.125 110.73 754.247 109.68 759.625 109.191C766.669 108.497 771.769 107.755 774.925 106.969C778.086 106.186 779.894 104.519 780.347 101.969V101.658C780.872 98.3469 780.269 95.7858 778.536 93.9691C776.808 92.1552 774.064 91.2469 770.302 91.2469C766.325 91.2469 762.952 92.1219 760.191 93.8691C757.436 95.6108 755.45 97.8219 754.236 100.502L733.925 98.8358C736.641 91.5108 741.414 85.7024 748.236 81.4136C755.058 77.1191 763.302 74.9691 772.969 74.9691C778.902 74.9691 784.302 75.9136 789.169 77.8024C794.036 79.6858 797.739 82.6219 800.28 86.6136C802.827 90.608 803.58 95.7969 802.536 102.18L793.48 156.402H772.336L774.225 145.258H773.591C771.05 148.991 767.63 152.036 763.336 154.391C759.047 156.747 753.936 157.925 748.002 157.925ZM756.958 142.536C761.839 142.536 766.075 141.114 769.669 138.269C773.261 135.425 775.425 131.891 776.158 127.669L777.525 119.136C776.575 119.73 775.141 120.244 773.225 120.68C771.305 121.119 769.291 121.502 767.18 121.836C765.069 122.169 763.194 122.475 761.558 122.747C757.541 123.311 754.183 124.411 751.48 126.047C748.775 127.686 747.18 130.075 746.691 133.214C746.239 136.252 746.961 138.566 748.858 140.158C750.761 141.744 753.461 142.536 756.958 142.536Z" fill="#212124"/>
<path d="M799.443 186.547L817.866 76.0136H839.843L837.643 89.5136H838.588C839.913 87.3219 841.699 85.1108 843.943 82.8802C846.193 80.6441 848.968 78.7663 852.266 77.2469C855.568 75.7302 859.454 74.9691 863.921 74.9691C869.816 74.9691 874.968 76.4969 879.377 79.5469C883.791 82.5997 886.977 87.1886 888.932 93.3136C890.888 99.433 891.099 107.1 889.566 116.314C888.099 125.277 885.402 132.841 881.477 139.002C877.549 145.158 872.857 149.819 867.399 152.98C861.938 156.136 856.154 157.714 850.043 157.714C845.716 157.714 842.177 156.997 839.421 155.569C836.666 154.141 834.51 152.336 832.954 150.158C831.404 147.975 830.299 145.764 829.632 143.525H828.854L821.732 186.547H799.443ZM832.988 116.214C831.832 123.364 832.36 129.111 834.577 133.458C836.799 137.8 840.593 139.969 845.966 139.969C851.477 139.969 856.021 137.764 859.599 133.347C863.177 128.933 865.577 123.222 866.799 116.214C867.91 109.236 867.391 103.577 865.243 99.2358C863.102 94.8886 859.277 92.7136 853.766 92.7136C848.388 92.7136 843.866 94.833 840.199 99.0691C836.538 103.308 834.135 109.022 832.988 116.214Z" fill="#212124"/>
<path d="M411.361 190.836H415.969C421.594 190.836 427.664 189.506 428.905 180.425L429.039 179.406C430.144 170.9 424.872 168.686 418.716 168.686H407.064L402.547 203.239H409.722L411.361 190.836ZM412.114 184.633L413.444 174.886H417.875C419.822 174.886 422.302 175.683 421.772 179.583L421.683 180.247C421.197 184.014 418.583 184.633 416.633 184.633H412.114Z" fill="#212124"/>
<path d="M441.352 197.789C438.475 197.789 437.5 195.886 437.986 192.342L438.208 190.658C438.694 186.847 440.244 185.208 442.813 185.208C445.694 185.208 446.669 187.114 446.18 190.658L445.961 192.342C445.472 196.15 443.922 197.789 441.352 197.789ZM441.13 203.814C448.575 203.814 452.03 199.253 452.961 192.342L453.18 190.658C454.066 184.014 450.788 179.183 443.036 179.183C435.594 179.183 432.094 183.747 431.208 190.658L430.986 192.342C430.1 198.986 433.38 203.814 441.13 203.814Z" fill="#212124"/>
<path d="M473.158 187.069L474.356 203.239H483.169L490.214 179.761H483.436L479.583 195.664L478.342 179.761H469.836L464.519 195.664L464.608 179.761H457.964L458.806 203.239H467.797L473.158 187.069Z" fill="#212124"/>
<path d="M513.693 194.025L513.957 191.942C514.888 184.5 512.274 179.183 504.079 179.183C496.638 179.183 493.004 184.1 492.163 190.658L491.94 192.342C491.054 198.942 494.202 203.814 502.529 203.814C509.263 203.814 512.807 200.581 513.382 196.372L513.471 195.708H506.871C506.604 197.436 505.365 198.5 502.529 198.5C499.871 198.5 498.188 197.258 498.588 194.025H513.693ZM504.079 184.5C506.56 184.5 507.579 186.05 507.357 188.975H499.252C499.782 185.961 501.554 184.5 504.079 184.5Z" fill="#212124"/>
<path d="M533.14 179.183C530.351 179.183 527.957 180.425 526.318 182.861V179.761H520.073L519.629 186.361L517.415 203.239H524.415L526.362 188.397C527.204 187.381 529.065 186.406 532.254 186.406H532.832L533.762 179.228C533.804 179.228 533.496 179.183 533.14 179.183Z" fill="#212124"/>
<path d="M557.772 194.025L558.036 191.942C558.967 184.5 556.353 179.183 548.158 179.183C540.717 179.183 537.083 184.1 536.242 190.658L536.02 192.342C535.133 198.942 538.281 203.814 546.608 203.814C553.342 203.814 556.886 200.581 557.461 196.372L557.55 195.708H550.95C550.683 197.436 549.445 198.5 546.608 198.5C543.95 198.5 542.267 197.258 542.667 194.025H557.772ZM548.158 184.5C550.639 184.5 551.658 186.05 551.436 188.975H543.331C543.861 185.961 545.633 184.5 548.158 184.5Z" fill="#212124"/>
<path d="M569.688 203.814C573.232 203.814 575.357 202.308 576.688 200.139V203.239H582.935L583.376 196.639L587.188 167.8H580.188L578.326 181.797C577.618 180.689 575.668 179.183 572.346 179.183C566.276 179.183 563.265 183.881 562.379 190.658L562.157 192.342C561.226 199.342 563.707 203.814 569.688 203.814ZM573.985 185.208C576.068 185.208 577.129 186.628 577.574 187.511L576.51 195.619C575.846 196.461 574.693 197.789 572.435 197.789C569.821 197.789 568.668 195.931 569.157 192.342L569.376 190.658C569.821 187.114 571.238 185.208 573.985 185.208Z" fill="#212124"/>
<path d="M610.088 167.8H603.088L599.324 196.594L598.082 203.239H604.374L605.171 200.358C606.235 202.397 608.36 203.814 611.682 203.814C617.751 203.814 620.765 199.119 621.651 192.342L621.871 190.658C622.801 183.658 620.321 179.183 614.34 179.183C611.549 179.183 609.601 180.114 608.271 181.619L610.088 167.8ZM610.043 197.789C607.963 197.789 606.899 196.372 606.454 195.486L607.518 187.381C608.182 186.539 609.335 185.208 611.593 185.208C614.207 185.208 615.36 187.069 614.874 190.658L614.651 192.342C614.207 195.886 612.79 197.789 610.043 197.789Z" fill="#212124"/>
<path d="M636.048 194.733L633.523 179.761H626.037L631.351 201.997L626.257 212.1H634.587L638.929 201.997L650.134 179.761H642.384L636.048 194.733Z" fill="#212124"/>
<path d="M682.65 168.686L680.834 182.506H670.778L672.595 168.686H665.417L660.9 203.239H668.075L669.981 188.708H680.036L678.131 203.239H685.309L689.828 168.686H682.65Z" fill="#212124"/>
<path d="M702.275 194.733L699.75 179.761H692.264L697.578 201.997L692.483 212.1H700.814L705.155 201.997L716.361 179.761H708.611L702.275 194.733Z" fill="#212124"/>
<path d="M725.178 203.814C728.722 203.814 730.847 202.308 732.178 200.139V203.239H738.425L738.867 196.639L742.678 167.8H735.678L733.817 181.797C733.108 180.689 731.158 179.183 727.836 179.183C721.767 179.183 718.756 183.881 717.869 190.658L717.647 192.342C716.717 199.342 719.197 203.814 725.178 203.814ZM729.475 185.208C731.558 185.208 732.619 186.628 733.064 187.511L732 195.619C731.336 196.461 730.183 197.789 727.925 197.789C725.311 197.789 724.158 195.931 724.647 192.342L724.867 190.658C725.311 187.114 726.728 185.208 729.475 185.208Z" fill="#212124"/>
<path d="M759.686 179.183C756.897 179.183 754.503 180.425 752.864 182.861V179.761H746.619L746.175 186.361L743.961 203.239H750.961L752.908 188.397C753.75 187.381 755.611 186.406 758.8 186.406H759.378L760.308 179.228C760.35 179.228 760.041 179.183 759.686 179.183Z" fill="#212124"/>
<path d="M772.932 197.789C770.055 197.789 769.08 195.886 769.566 192.342L769.788 190.658C770.274 186.847 771.824 185.208 774.394 185.208C777.274 185.208 778.249 187.114 777.76 190.658L777.541 192.342C777.052 196.15 775.502 197.789 772.932 197.789ZM772.71 203.814C780.155 203.814 783.61 199.253 784.541 192.342L784.76 190.658C785.646 184.014 782.369 179.183 774.616 179.183C767.174 179.183 763.674 183.747 762.788 190.658L762.566 192.342C761.68 198.986 764.96 203.814 772.71 203.814Z" fill="#212124"/>
</svg>
